<svg width="10" height="23" viewBox="0 0 10 23" fill="none" xmlns="http://www.w3.org/2000/svg">
<path d="M4.75 1.25C2.817 1.25 1.25 1.99619 1.25 2.91667C1.25 3.83714 2.817 4.58333 4.75 4.58333C6.68299 4.58333 8.25 5.32953 8.25 6.25C8.25 7.17048 6.68299 7.91667 4.75 7.91667C2.817 7.91667 1.25 8.66286 1.25 9.58333C1.25 10.5038 2.817 11.25 4.75 11.25C6.68299 11.25 8.25 11.9962 8.25 12.9167C8.25 13.8371 6.68299 14.5833 4.75 14.5833C2.817 14.5833 1.25 15.3295 1.25 16.25C1.25 17.1705 2.817 17.9167 4.75 17.9167C6.68299 17.9167 8.25 18.6629 8.25 19.5833C8.25 20.5038 6.68299 21.25 4.75 21.25" stroke="#668DF9" stroke-width="2.5"/>
</svg>
