<svg width="9" height="17" viewBox="0 0 9 17" fill="none" xmlns="http://www.w3.org/2000/svg">
<mask id="path-1-inside-1_529_133" fill="white">
<path d="M7.36719 2.56934C5.37358 3.54447 4 5.591 4 7.95996C4 10.7365 5.8865 13.0697 8.44727 13.7539L5.82031 16.3809C2.41914 15.0959 0 11.811 0 7.95996C0 4.50732 1.94453 1.50942 4.79785 0L7.36719 2.56934Z"/>
</mask>
<path d="M7.36719 2.56934C5.37358 3.54447 4 5.591 4 7.95996C4 10.7365 5.8865 13.0697 8.44727 13.7539L5.82031 16.3809C2.41914 15.0959 0 11.811 0 7.95996C0 4.50732 1.94453 1.50942 4.79785 0L7.36719 2.56934Z" fill="#FF6A94"/>
<path d="M7.36719 2.56934L7.47703 2.79391L7.7915 2.6401L7.54396 2.39256L7.36719 2.56934ZM8.44727 13.7539L8.62404 13.9307L8.93048 13.6242L8.5118 13.5124L8.44727 13.7539ZM5.82031 16.3809L5.73196 16.6147L5.88295 16.6718L5.99709 16.5576L5.82031 16.3809ZM4.79785 0L4.97463 -0.176777L4.84411 -0.307296L4.68095 -0.220984L4.79785 0ZM7.36719 2.56934L7.25734 2.34476C5.18136 3.36019 3.75 5.49179 3.75 7.95996H4H4.25C4.25 5.6902 5.56579 3.72876 7.47703 2.79391L7.36719 2.56934ZM4 7.95996H3.75C3.75 10.8527 5.71551 13.2828 8.38273 13.9954L8.44727 13.7539L8.5118 13.5124C6.0575 12.8566 4.25 10.6203 4.25 7.95996H4ZM8.44727 13.7539L8.27049 13.5771L5.64354 16.2041L5.82031 16.3809L5.99709 16.5576L8.62404 13.9307L8.44727 13.7539ZM5.82031 16.3809L5.90866 16.147C2.60152 14.8976 0.25 11.7036 0.25 7.95996H0H-0.25C-0.25 11.9184 2.23677 15.2943 5.73196 16.6147L5.82031 16.3809ZM0 7.95996H0.25C0.25 4.60361 2.14003 1.68883 4.91475 0.220984L4.79785 0L4.68095 -0.220984C1.74904 1.33001 -0.25 4.41102 -0.25 7.95996H0ZM4.79785 0L4.62107 0.176777L7.19041 2.74611L7.36719 2.56934L7.54396 2.39256L4.97463 -0.176777L4.79785 0Z" fill="#FF5656" mask="url(#path-1-inside-1_529_133)"/>
</svg>
