<svg width="14" height="16" viewBox="0 0 14 16" fill="none" xmlns="http://www.w3.org/2000/svg">
<path d="M6.34807 0.477576C6.5237 -0.158371 7.42552 -0.158371 7.60115 0.477576L8.75125 4.64185C8.82908 4.92365 9.08545 5.11881 9.37779 5.11881H13.2977C13.9017 5.11881 14.1791 5.87053 13.7201 6.26291L10.3767 9.1207C10.1849 9.28461 10.1053 9.54467 10.1725 9.78784L11.4055 14.2523C11.5761 14.8702 10.8439 15.336 10.3566 14.9194L7.39694 12.3896C7.15375 12.1818 6.79547 12.1818 6.55228 12.3896L3.59262 14.9194C3.10531 15.336 2.37308 14.8702 2.54374 14.2523L3.77674 9.78784C3.8439 9.54467 3.76429 9.28461 3.57253 9.1207L0.229137 6.26291C-0.229924 5.87053 0.047565 5.11881 0.651472 5.11881H4.57142C4.86377 5.11881 5.12014 4.92365 5.19797 4.64185L6.34807 0.477576Z" fill="#FFFD7E"/>
</svg>
