<svg width="50" height="50" viewBox="0 0 50 50" fill="none" xmlns="http://www.w3.org/2000/svg">
<rect x="23.9553" width="2.52161" height="50" fill="#F8FAFC"/>
<rect width="2.51083" height="8.1993" transform="matrix(0.710142 -0.704058 0.710142 0.704058 18.9121 1.76782)" fill="#F8FAFC"/>
<rect width="2.51083" height="8.1993" transform="matrix(-0.710142 -0.704058 -0.710142 0.704058 31.561 1.76782)" fill="#F8FAFC"/>
<rect width="2.50542" height="50.3244" transform="matrix(0.50323 -0.864152 0.867878 0.496777 2.52161 14.0305)" fill="#F8FAFC"/>
<rect width="2.51083" height="8.1993" transform="matrix(-0.25993 -0.961761 0.970073 -0.257703 1.54431 19.2446)" fill="#F8FAFC"/>
<rect width="2.51083" height="8.1993" transform="matrix(-0.970073 0.257703 0.25993 0.961761 7.86877 8.38403)" fill="#F8FAFC"/>
<rect width="2.50542" height="50.3244" transform="matrix(0.50323 0.864152 -0.867878 0.496777 46.1971 11.8301)" fill="#F8FAFC"/>
<rect width="2.51083" height="8.1993" transform="matrix(0.970073 0.257703 -0.25993 0.961761 42.1312 8.38403)" fill="#F8FAFC"/>
<rect width="2.51083" height="8.1993" transform="matrix(0.25993 -0.961761 -0.970073 -0.257703 48.4558 19.2444)" fill="#F8FAFC"/>
<rect width="2.51083" height="8.1993" transform="matrix(0.970073 -0.257703 -0.25993 -0.961761 42.1312 42.4766)" fill="#F8FAFC"/>
<rect width="2.51083" height="8.1993" transform="matrix(0.25993 0.961761 -0.970073 0.257703 48.4558 31.6162)" fill="#F8FAFC"/>
<rect width="2.51083" height="8.1993" transform="matrix(-0.970073 -0.257703 0.25993 -0.961761 7.86877 42.4766)" fill="#F8FAFC"/>
<rect width="2.51083" height="8.1993" transform="matrix(-0.25993 0.961761 0.970073 0.257703 1.54419 31.6162)" fill="#F8FAFC"/>
<rect width="2.51083" height="8.1993" transform="matrix(0.710142 0.704058 0.710142 -0.704058 18.9121 48.2322)" fill="#F8FAFC"/>
<rect width="2.51083" height="8.1993" transform="matrix(-0.710142 0.704058 -0.710142 -0.704058 31.561 48.2322)" fill="#F8FAFC"/>
</svg>
