<svg width="50" height="50" viewBox="0 0 50 50" fill="none" xmlns="http://www.w3.org/2000/svg">
<path d="M2.69751 25.9439C1.80454 25.6314 1.80455 24.3686 2.69751 24.0561L23.4197 16.8052C24.0699 16.5777 24.75 17.0603 24.75 17.7491V32.2509C24.75 32.9397 24.0699 33.4223 23.4197 33.1948L2.69751 25.9439Z" fill="#EFEFFF"/>
<path d="M24.0437 3.12876C24.3321 2.18517 25.6679 2.18517 25.9563 3.12876L32.3992 24.2077C32.5957 24.8504 32.1149 25.5 31.4429 25.5H18.5571C17.8851 25.5 17.4043 24.8504 17.6008 24.2077L24.0437 3.12876Z" fill="#EFEFFF"/>
<path d="M47.3025 24.0561C48.1955 24.3686 48.1955 25.6314 47.3025 25.9439L26.5803 33.1948C25.9301 33.4223 25.25 32.9397 25.25 32.2509V17.7491C25.25 17.0603 25.9301 16.5777 26.5803 16.8052L47.3025 24.0561Z" fill="#EFEFFF"/>
<path d="M25.9563 46.8712C25.6679 47.8148 24.3321 47.8148 24.0437 46.8712L17.6008 25.7923C17.4043 25.1496 17.8851 24.5 18.5571 24.5L31.4429 24.5C32.1149 24.5 32.5957 25.1496 32.3992 25.7923L25.9563 46.8712Z" fill="#EFEFFF"/>
</svg>
